<?xml version="1.0" standalone="no"?>
<!DOCTYPE svg PUBLIC "-//W3C//DTD SVG 20010904//EN"
 "http://www.w3.org/TR/2001/REC-SVG-20010904/DTD/svg10.dtd">
<svg version="1.0" xmlns="http://www.w3.org/2000/svg"
 width="192.000000pt" height="192.000000pt" viewBox="0 0 192.000000 192.000000"
 preserveAspectRatio="xMidYMid meet">

<g transform="translate(0.000000,192.000000) scale(0.100000,-0.100000)"
fill="#000000" stroke="none">
<path d="M490 1638 c-25 -13 -55 -38 -67 -57 l-23 -34 0 -550 c0 -537 0 -550
21 -583 27 -44 82 -87 160 -124 l64 -30 370 0 c365 0 372 0 415 23 25 12 55
37 67 56 l23 34 0 529 c0 580 2 559 -60 612 -18 14 -48 29 -69 32 -27 4 -42
14 -59 41 -13 19 -42 43 -65 54 -39 17 -69 19 -387 19 -339 0 -347 0 -390 -22z
m914 -214 c14 -14 16 -74 16 -516 0 -453 -2 -503 -17 -520 -15 -17 -40 -18
-385 -18 -363 0 -369 0 -411 22 l-42 23 340 5 c320 5 342 6 375 26 19 11 45
35 57 54 l23 33 0 453 c0 387 2 454 14 454 8 0 22 -7 30 -16z m-469 -164 l0
-75 80 -5 80 -5 3 -52 3 -52 -81 -3 -82 -3 -1 -160 -2 -160 -55 0 -55 0 -2
160 -1 160 -82 3 -81 3 3 52 3 52 80 3 80 3 -3 65 c-5 92 -2 96 60 92 l53 -3
0 -75z"/>
</g>
</svg>
